#N canvas 1341 47 450 489 10;
#X obj 239 102 cnv 13 32 13 empty empty save 2 7 0 11 -66577 -262144
0;
#X obj 226 102 bng 13 250 50 0 \$0-save \$0-save empty 17 6 0 10 -4034
-1 -1;
#X obj 189 102 nbx 3 13 1 1e+037 0 0 \$0-preset-number \$0-preset-number
empty 0 -8 0 10 -204786 -1 -1 2 256;
#X obj 273 102 bng 13 250 50 0 \$0-load \$0-load empty 17 7 0 10 -4034
-1 -1;
#X obj 286 102 cnv 13 32 13 empty empty load 2 7 0 11 -66577 -262144
0;
#X obj 239 199 textfile;
#N canvas 707 34 394 491 SAVE 0;
#X obj 130 7 inlet;
#X obj 130 457 outlet;
#X msg 186 284 clear;
#X obj 167 225 t b b b;
#X obj -8 320 s ql-area_SAVE;
#X obj -8 350 r ql-area_SAVE-data;
#X msg 130 320 write ql-preset_2.txt;
#X msg 130 184 set write ql-preset_\$1.txt;
#X msg -8 387 add \$1 \$2 \$3 \$4 \$5 \$6 \$7 \$8 \$9;
#X obj 233 225 del 500;
#X obj 130 57 route float;
#X connect 0 0 10 0;
#X connect 2 0 1 0;
#X connect 3 0 4 0;
#X connect 3 1 2 0;
#X connect 3 2 6 0;
#X connect 5 0 8 0;
#X connect 6 0 1 0;
#X connect 7 0 6 0;
#X connect 8 0 1 0;
#X connect 9 0 6 0;
#X connect 10 0 7 0;
#X connect 10 1 3 0;
#X connect 10 1 9 0;
#X restore 189 151 pd SAVE;
#N canvas 707 34 394 491 LOAD 0;
#X obj 70 7 inlet;
#X obj 70 457 outlet;
#X msg 70 320 read ql-preset_2.txt;
#X obj 70 57 route float;
#X msg 70 104 set read ql-preset_\$1.txt;
#X obj 133 198 t b b b;
#X msg 152 268 rewind;
#X obj 133 383 until;
#X obj 220 7 inlet;
#X connect 0 0 3 0;
#X connect 2 0 1 0;
#X connect 3 0 4 0;
#X connect 3 1 5 0;
#X connect 4 0 2 0;
#X connect 5 0 7 0;
#X connect 5 1 6 0;
#X connect 5 2 2 0;
#X connect 6 0 1 0;
#X connect 7 0 1 0;
#X connect 8 0 7 1;
#X restore 273 151 pd LOAD;
#X obj 239 245 s ql-area_preset;
#X connect 1 0 6 0;
#X connect 2 0 6 0;
#X connect 2 0 7 0;
#X connect 3 0 7 0;
#X connect 5 0 8 0;
#X connect 5 1 7 1;
#X connect 6 0 5 0;
#X connect 7 0 5 0;
#X coords 0 -1 1 1 220 17 1 100 100;
